<?xml version="1.0" encoding="UTF-8"?>
<!DOCTYPE svg PUBLIC "-//W3C//DTD SVG 1.1//EN" "http://www.w3.org/Graphics/SVG/1.1/DTD/svg11.dtd">
<!-- Creator: CorelDRAW X7 -->
<svg xmlns="http://www.w3.org/2000/svg" xml:space="preserve" width="3333px" height="3338px" version="1.1" style="shape-rendering:geometricPrecision; text-rendering:geometricPrecision; image-rendering:optimizeQuality; fill-rule:evenodd; clip-rule:evenodd"
viewBox="0 0 3333 3337"
 xmlns:xlink="http://www.w3.org/1999/xlink">
 <defs>
  <style type="text/css">
   <![CDATA[
    .fil0 {fill:#FEFEFE;fill-rule:nonzero}
    .fil1 {fill:#282828;fill-rule:nonzero}
   ]]>
  </style>
 </defs>
 <g id="Layer_x0020_1">
  <metadata id="CorelCorpID_0Corel-Layer"/>
  <path class="fil0" d="M641 1l-3 0c-1,-1 -1,-1 -1,-1 0,-1 1,-2 1,-2l3 0c0,1 0,2 0,3zm-9 0l-21 0c-1,-1 -1,-2 -1,-3l23 0c0,1 -1,2 -1,3z"/>
  <path class="fil0" d="M614 49c1,-3 -1,-5 -2,-7l2 0c7,-10 -4,-12 -4,-21 0,3 -1,4 -2,5 0,0 0,-1 0,-1l-5 -7c1,0 2,0 3,0 5,0 5,-8 5,-17l21 0c-1,3 -2,6 -3,9 2,2 3,8 5,8 1,0 1,0 1,0 1,-7 5,-11 3,-17l3 0c0,2 0,5 2,6 -10,3 3,16 -4,25 -1,-2 -2,-4 -3,-4 0,0 -1,0 -1,0 -1,2 -2,3 -2,5l0 0c0,-4 0,-7 2,-8 -3,-6 -6,-11 -8,-18l-7 11c-3,8 4,18 4,18 0,0 0,-1 0,-1l-10 14z"/>
  <path class="fil0" d="M589 1l-2 0c0,-1 0,-2 -1,-3l4 0c0,0 -1,2 -1,3z"/>
  <path class="fil0" d="M588 19c0,-2 0,-3 -1,-5 2,-5 -4,-7 0,-11 1,-1 1,-1 0,-2l2 0c0,3 1,6 0,9 0,3 -1,6 -1,9z"/>
  <path class="fil0" d="M742 1l-1 0c0,-1 0,-2 0,-3l1 0c0,1 0,2 0,3z"/>
  <path class="fil0" d="M742 35c0,-6 0,-12 0,-17 -1,0 -2,0 -3,-1 0,0 1,0 1,0 1,0 1,0 2,0 -1,-6 -1,-11 -1,-16l1 0c2,4 7,7 0,13l2 3c1,0 2,0 2,-1 -1,1 -1,2 -1,4 0,0 -1,-1 -1,-1 -1,5 1,13 -2,16z"/>
  <path class="fil0" d="M1069 16c-2,-3 0,-8 -1,-13 1,0 1,-1 1,-1l0 14z"/>
  <path class="fil0" d="M1053 12c-1,-4 -3,-8 -1,-11l0 0 1 11z"/>
  <path class="fil0" d="M1052 1l0 0 0 -3c0,1 0,1 1,2 -1,0 -1,0 -1,1z"/>
  <path class="fil0" d="M1052 1l0 0 0 0 0 0c0,0 0,0 0,0l0 0z"/>
  <path class="fil0" d="M1085 14c-2,-6 1,-9 2,-13 1,5 0,11 -2,13z"/>
  <path class="fil0" d="M717 1l-2 0c0,-1 -1,-1 -2,-1l1 -2 2 0c0,1 0,2 1,3z"/>
  <path class="fil0" d="M715 28c-1,-9 3,-23 0,-27l2 0c2,10 -3,13 -2,27z"/>
  <polygon class="fil0" points="3319,1 3318,1 3318,0 "/>
  <polygon class="fil0" points="3320,14 3318,14 3318,1 3319,1 "/>
  <path class="fil0" d="M769 1l0 0c0,-1 0,-1 0,-1 0,0 0,0 0,1z"/>
  <path class="fil0" d="M769 39c-6,-13 -2,-25 0,-38l0 0c2,14 -6,25 0,38z"/>
  <path class="fil0" d="M682 1l-4 0c1,-1 2,-1 3,-1 0,0 1,0 2,0l-1 1z"/>
  <path class="fil0" d="M677 18l-2 -4c0,0 1,0 1,0 1,0 2,-2 3,-4 -1,-2 -3,-4 -2,-7 0,-1 1,-2 1,-2l4 0 -5 17z"/>
  <path class="fil0" d="M572 71l-2 0c1,-10 -10,-12 -4,-25 -8,-5 3,-14 -3,-21l3 -7c1,-4 -1,-5 -1,-8 2,-5 3,-7 4,-7 3,0 1,22 5,25 0,0 0,0 -1,0 -1,0 -2,2 -3,4l4 7c-9,5 2,19 -2,32z"/>
  <path class="fil0" d="M1846 1l-3 0c0,-1 0,-2 1,-3l1 0c0,1 0,2 1,3z"/>
  <path class="fil0" d="M1842 62c0,-3 -1,-5 -2,-7 0,3 -1,4 -2,4 0,0 -1,0 -1,0 -1,0 -1,-1 -1,-1 -1,0 -1,1 -1,1 -1,-7 1,-17 -2,-22 1,-2 2,-3 3,-3 2,0 4,6 6,7 6,-11 1,-26 1,-40l3 0c0,0 0,1 0,1l-1 3c4,13 -2,39 4,48 -3,2 -6,4 -7,9z"/>
  <path class="fil0" d="M1833 1l-2 0c0,-1 0,-2 0,-3l2 0c0,1 0,2 0,3z"/>
  <path class="fil0" d="M1833 15c0,-5 -1,-9 -2,-14l2 0c0,5 0,9 0,14z"/>
  <path class="fil0" d="M1905 20c-1,0 -1,0 -1,0 2,-2 4,-8 3,-15l1 0 0 11 -1 0c-1,3 -1,4 -2,4z"/>
  <path class="fil0" d="M280 14c-11,0 -21,-2 -32,-4 -10,-2 -20,-4 -30,-4 -2,0 -4,0 -6,1 4,-2 9,-3 14,-3 5,0 11,1 16,2 6,1 11,2 16,2 3,0 5,0 8,-1 1,2 3,3 5,3 1,0 1,0 2,-1 1,0 2,0 3,0 1,0 2,0 2,1 4,-2 3,-5 3,-8 1,0 2,0 2,0 1,0 2,0 2,0 1,0 1,0 2,0 5,0 10,0 13,5 -2,1 -5,3 -3,5 -6,1 -12,2 -17,2z"/>
  <polygon class="fil0" points="161,1 162,1 162,-2 161,-2 "/>
  <path class="fil0" d="M133 41c-3,0 -6,0 -8,-1 -2,0 -5,-1 -7,-1 -2,0 -4,0 -6,2l3 -3c4,-4 4,-10 -3,-13l0 0c1,-1 1,-1 0,-2 7,1 15,2 22,2 15,0 31,-3 40,-10 -4,-2 -7,-4 -12,-5l0 3 -1 0 0 -3c-1,1 -3,1 -4,1 -2,0 -5,-1 -8,-1 1,-1 2,-1 4,-1 2,0 5,1 8,1l0 -9 1 0 0 9c11,-2 20,-8 31,-8 1,0 2,0 2,0 3,3 7,5 12,5 -4,1 -8,1 -12,3l0 7 37 6 -31 0c0,0 -1,0 -2,0 -3,0 -5,0 -7,2l3 3c0,0 -1,-1 -1,-1 -2,0 -3,2 -5,3l-3 -2c-1,0 -3,0 -4,0 -2,0 -4,0 -6,0 -2,0 -3,0 -5,0 -6,0 -12,0 -16,5l0 -3c-3,-2 -8,-3 -13,-3 -6,0 -11,1 -14,3 -5,8 9,7 9,11 -2,0 -3,0 -4,0z"/>
  <path class="fil0" d="M22 1l-21 0 0 -3 19 0c0,1 1,2 2,3z"/>
  <path class="fil0" d="M1 33l0 -32 21 0c1,1 1,2 1,3 0,0 -1,0 -1,0 -2,0 -3,2 -5,3 2,1 4,3 3,5 0,0 -1,0 -1,0 -4,0 -5,4 -8,5 4,2 10,3 15,3 2,0 4,0 6,0 2,0 4,0 5,0 8,0 15,0 20,5 2,0 5,0 7,0 3,0 6,0 10,0 3,0 7,0 10,0 7,0 14,0 21,2 -7,1 -14,1 -21,1 -5,0 -9,0 -13,0 -5,0 -9,0 -14,0 -3,0 -6,0 -9,0 -8,-2 -16,-3 -24,-3 -9,0 -17,2 -23,8z"/>
  <polygon class="fil0" points="42,4 54,4 54,2 42,2 "/>
  <path class="fil0" d="M116 1l-16 0c1,-1 1,-2 0,-3l9 0c3,1 5,2 7,3zm-31 0l-12 0c2,-2 4,-2 6,-2 2,0 4,1 6,2z"/>
  <path class="fil0" d="M107 7c-11,0 -24,-5 -35,-5 1,-1 1,-1 1,-1l12 0c0,0 1,0 1,1 3,1 5,3 8,3 2,0 4,-1 6,-3 0,-1 0,-1 0,-1l16 0c2,0 4,1 6,1 -4,4 -9,5 -15,5z"/>
  <path class="fil0" d="M411 1l-2 0c1,-1 1,-1 1,-2l1 2z"/>
  <path class="fil0" d="M386 11c-2,0 -4,0 -6,-1 2,-5 6,-6 11,-6 1,0 3,0 4,0 1,0 3,0 4,0 4,0 8,0 10,-3l2 0 2 6c-2,-1 -3,-1 -5,-1 -4,0 -8,1 -12,3 -3,1 -6,2 -10,2z"/>
  <path class="fil0" d="M444 4c3,0 7,-1 10,-1 1,0 1,0 1,0 -3,0 -7,1 -11,1z"/>
  <path class="fil0" d="M508 1l-41 0c8,-1 15,-2 22,-2 2,0 5,0 7,0l2 -1 17 0c-2,1 -5,2 -7,3z"/>
  <path class="fil0" d="M481 21c-8,0 -15,-3 -24,-4 3,-1 6,-4 9,-5l-3 -2c-1,-5 -4,-7 -8,-7 4,-1 8,-1 12,-2l41 0c-3,1 -6,2 -9,3 1,8 11,7 16,11 -2,0 -4,0 -6,0 -5,0 -9,-1 -13,-3 -4,7 -10,9 -15,9z"/>
  <path class="fil0" d="M667 1l-5 0c0,-1 0,-2 0,-3l4 0 1 3z"/>
  <path class="fil0" d="M679 39c-4,-4 -8,-7 -11,-11 0,-4 -1,-7 -2,-11 -1,0 -2,1 -3,1 -4,0 -6,-1 -7,-3l9 -2c-1,-4 -3,-8 -3,-12l5 0 1 12 7 -1 -4 3 4 2c-1,0 -2,0 -3,0 -1,0 -3,0 -4,0l1 11c2,2 4,6 6,6 1,0 2,0 2,-2 1,2 3,4 2,7z"/>
  <path class="fil0" d="M950 0c-4,0 -7,-1 -9,-2l28 0 -15 1c-1,1 -3,1 -4,1z"/>
  <polygon class="fil0" points="1376,1 1366,1 1366,-2 1368,-2 "/>
  <polygon class="fil0" points="1378,2 1366,2 1366,1 1376,1 "/>
  <polygon class="fil0" points="1412,1 1400,1 1400,-1 1409,-1 1409,-2 1411,-2 1411,-1 1412,-1 "/>
  <polygon class="fil0" points="1411,10 1409,10 1409,2 1400,2 1400,1 1412,1 1412,2 1411,2 "/>
  <polygon class="fil0" points="2386,1 2381,1 2385,-2 2386,-2 "/>
  <path class="fil0" d="M2372 5c-4,0 -9,-1 -11,-3 1,0 1,-1 2,-1 1,0 2,1 3,2 1,0 1,1 2,1 1,0 2,0 2,-2 1,0 1,-1 2,-1 2,0 3,2 5,3l4 -3 5 0 0 1c-3,2 -9,3 -14,3z"/>
  <path class="fil0" d="M2583 10c-2,0 -3,0 -5,-1 -2,0 -4,0 -6,0 -1,0 -3,0 -5,1 3,-4 5,-5 8,-5 2,0 5,1 7,1 2,1 5,2 8,2 1,0 3,-1 5,-1 -5,2 -9,3 -12,3z"/>
  <path class="fil0" d="M2680 1l-20 0c1,-1 2,-2 2,-3l17 0 -1 1c0,1 1,1 2,2zm-34 0l-6 0c0,-1 0,-2 1,-3l1 0 4 3z"/>
  <path class="fil0" d="M2653 8c-7,0 -13,-2 -13,-7l6 0 7 6c2,-2 5,-4 7,-6l20 0c1,1 1,2 1,3 -6,1 -18,4 -28,4z"/>
  <path class="fil0" d="M1179 9l0 -8 1 7c0,0 -1,1 -1,1z"/>
  <path class="fil0" d="M2776 1l-1 0 -1 -2c1,0 1,1 2,2z"/>
  <path class="fil0" d="M2775 2l0 -1 1 0c0,0 0,0 0,0l-1 1z"/>
  <polygon class="fil0" points="2776,8 2773,4 2775,2 "/>
  <path class="fil0" d="M2760 4l0 -3 1 1 0 -1c0,1 0,2 -1,3z"/>
  <path class="fil0" d="M2761 1l-1 0 0 -3c1,1 1,2 1,3z"/>
  <path class="fil0" d="M2761 2l-1 -1 0 0 1 0c0,0 0,0 0,0 0,0 0,0 0,0l0 0 0 1z"/>
  <polygon class="fil1" points="1666,418 2007,1332 2982,1373 2218,1980 2479,2919 1666,2380 854,2919 1115,1980 351,1373 1326,1332 "/>
 </g>
</svg>
