<?xml version="1.0" encoding="iso-8859-1"?>
<!-- Generator: Adobe Illustrator 18.0.0, SVG Export Plug-In . SVG Version: 6.00 Build 0)  -->
<!DOCTYPE svg PUBLIC "-//W3C//DTD SVG 1.1//EN" "http://www.w3.org/Graphics/SVG/1.1/DTD/svg11.dtd">
<svg xmlns="http://www.w3.org/2000/svg" xmlns:xlink="http://www.w3.org/1999/xlink" version="1.1" id="Capa_1" x="0px" y="0px" viewBox="0 0 490.535 490.535" style="enable-background:new 0 0 490.535 490.535;" xml:space="preserve" width="512px" height="512px">
<g>
	<path d="M434.264,98.446c27.142,0,49.223-22.081,49.223-49.224C483.487,22.081,461.406,0,434.264,0   c-27.142,0-49.224,22.081-49.224,49.223C385.041,76.365,407.122,98.446,434.264,98.446z M434.264,8.5   c22.455,0,40.723,18.268,40.723,40.723c0,22.455-18.268,40.724-40.723,40.724c-22.455,0-40.724-18.268-40.724-40.724   C393.541,26.768,411.809,8.5,434.264,8.5z" fill="#5c5c5c"/>
	<path d="M191.148,438.1c-14.456,0-26.218,11.761-26.218,26.218c0,14.456,11.761,26.218,26.218,26.218s26.218-11.761,26.218-26.218   C217.366,449.861,205.605,438.1,191.148,438.1z M191.148,482.035c-9.77,0-17.718-7.948-17.718-17.718s7.948-17.718,17.718-17.718   s17.718,7.948,17.718,17.718S200.918,482.035,191.148,482.035z" fill="#5c5c5c"/>
	<path d="M75.032,438.1c-14.457,0-26.218,11.761-26.218,26.218c0,14.456,11.761,26.218,26.218,26.218   c14.457,0,26.219-11.761,26.219-26.218C101.25,449.861,89.489,438.1,75.032,438.1z M75.032,482.035   c-9.77,0-17.718-7.948-17.718-17.718S65.262,446.6,75.032,446.6c9.77,0,17.719,7.948,17.719,17.718S84.802,482.035,75.032,482.035z   " fill="#5c5c5c"/>
	<path d="M131.73,357.342H60.596c-2.347,0-4.25,1.903-4.25,4.25c0,2.347,1.903,4.25,4.25,4.25h71.134c2.347,0,4.25-1.903,4.25-4.25   C135.98,359.245,134.077,357.342,131.73,357.342z" fill="#5c5c5c"/>
	<path d="M434.264,102.149c-26.728,0-48.472,21.744-48.472,48.472v0.034L316.8,192.839c-5.621,3.436-9.566,8.855-11.111,15.26   c-0.778,3.228-0.898,6.511-0.387,9.694h-48.668c-2.047,0-3.803,1.459-4.178,3.471l-5.372,28.818   c-2.439-1.651-5.407-2.575-8.571-2.575H21.764c-4.557,0-8.734,1.88-11.46,5.158c-2.727,3.278-3.814,7.729-2.983,12.21   l21.212,114.424c1.643,8.87,9.997,15.817,19.019,15.817h165.173c2.659,0,5.256-0.626,7.642-1.724l-5.76,30.898H48.043   c-2.347,0-4.25,1.903-4.25,4.25c0,2.347,1.903,4.25,4.25,4.25h170.095c2.047,0,3.803-1.459,4.178-3.471l37.849-203.027h47.18   c0.327,0,0.643-0.045,0.949-0.115c0.11,0.19,0.215,0.382,0.33,0.57c4.518,7.39,12.392,11.802,21.063,11.802   c4.526,0,8.968-1.253,12.847-3.624l43.259-26.449l0,69.555c0,13.728,5.777,26.682,15.902,35.874l0.001,142.094   c0,17.958,14.61,32.568,32.569,32.568c17.958,0,32.568-14.61,32.568-32.568l-0.001-142.091   c10.125-9.191,15.903-22.147,15.903-35.877l-0.001-127.41C482.735,123.894,460.992,102.149,434.264,102.149z M223.355,377.556   c-0.891,4.806-5.82,9.061-10.63,9.061H47.552c-4.889,0-9.771-4.06-10.662-8.866l-15.549-83.879h186.546   c2.347,0,4.25-1.903,4.25-4.25s-1.903-4.25-4.25-4.25H19.765l-4.087-22.046c-0.374-2.02,0.038-3.875,1.161-5.225   c1.123-1.35,2.872-2.093,4.925-2.093h216.748c2.054,0,3.803,0.743,4.926,2.093c1.123,1.35,1.529,3.282,1.155,5.301   c-0.009,0.051,0.008-0.051,0,0l-17.505,93.94h-71.088c-2.347,0-4.25,1.903-4.25,4.25c0,2.347,1.903,4.25,4.25,4.25h69.504   L223.355,377.556C223.318,377.685,223.381,377.42,223.355,377.556z M338.1,227.673c-2.543,1.555-5.453,2.376-8.413,2.376   c-5.686,0-10.85-2.892-13.811-7.735c-2.252-3.684-2.936-8.025-1.923-12.223c1.012-4.198,3.598-7.749,7.281-10.001l100.443-61.414   c2.542-1.555,5.451-2.377,8.412-2.377c5.687,0,10.85,2.892,13.812,7.737c4.65,7.605,2.246,17.575-5.359,22.225L338.1,227.673z    M442.778,478.508v-96.077c0-2.347-1.903-4.25-4.25-4.25s-4.25,1.903-4.25,4.25v97.637c-0.004,0-0.008,0-0.012,0   c-13.272,0-24.069-10.797-24.069-24.068l-0.001-163.305c0-13.271,10.798-24.068,24.07-24.068c13.272,0,24.068,10.797,24.068,24.068   l0.001,163.305C458.334,466.274,451.859,475.062,442.778,478.508z M466.833,301.186v-8.492c0-17.958-14.61-32.568-32.568-32.568   c-17.959,0-32.57,14.61-32.57,32.568v8.489c-4.769-6.696-7.402-14.747-7.402-23.152l-0.001-74.752l48.682-29.765   c11.604-7.094,15.272-22.307,8.177-33.91c-4.518-7.391-12.393-11.803-21.063-11.803c-4.526,0-8.968,1.253-12.846,3.625   l-22.576,13.804c2.643-19.498,19.387-34.579,39.598-34.579c22.04,0,39.971,17.931,39.971,39.972l0.001,127.41   C474.236,286.438,471.603,294.49,466.833,301.186z" fill="#5c5c5c"/>
	<path d="M438.528,313.684c-2.347,0-4.25,1.903-4.25,4.25v31.498c0,2.347,1.903,4.25,4.25,4.25s4.25-1.903,4.25-4.25v-31.498   C442.778,315.586,440.875,313.684,438.528,313.684z" fill="#5c5c5c"/>
</g>
<g>
</g>
<g>
</g>
<g>
</g>
<g>
</g>
<g>
</g>
<g>
</g>
<g>
</g>
<g>
</g>
<g>
</g>
<g>
</g>
<g>
</g>
<g>
</g>
<g>
</g>
<g>
</g>
<g>
</g>
</svg>
