<?xml version="1.0" encoding="iso-8859-1"?>
<!-- Generator: Adobe Illustrator 18.0.0, SVG Export Plug-In . SVG Version: 6.00 Build 0)  -->
<!DOCTYPE svg PUBLIC "-//W3C//DTD SVG 1.1//EN" "http://www.w3.org/Graphics/SVG/1.1/DTD/svg11.dtd">
<svg xmlns="http://www.w3.org/2000/svg" xmlns:xlink="http://www.w3.org/1999/xlink" version="1.1" id="Capa_1" x="0px" y="0px" viewBox="0 0 492.289 492.289" style="enable-background:new 0 0 492.289 492.289;" xml:space="preserve" width="512px" height="512px">
<g>
	<path d="M276.883,105.981c9.661,14.115,25.887,23.399,44.245,23.399c18.381,0,34.625-9.306,44.281-23.45   c22.145-11.939,21.881-32.25,21.762-40.984c-0.493-36.033-27.425-63.325-64.039-64.894c-19.322-0.839-30.501,8.58-33.923,12.024   c-2.991,0.678-9.642,2.705-16.295,8.248c-7.913,6.591-17.451,19.647-17.958,44.408C254.777,73.503,254.374,93.911,276.883,105.981z    M321.128,120.881c-24.859,0-45.084-20.225-45.084-45.085V63.237c11.656-4.419,18.84-16.707,22.369-24.549   c9.609,10.113,33.23,30.551,67.799,31.61v5.497C366.212,100.656,345.988,120.881,321.128,120.881z M263.454,64.907   c0.826-40.374,27.357-44.551,28.461-44.705c1.059-0.136,2.045-0.686,2.732-1.502c0.377-0.448,9.411-10.951,28.122-10.155   c31.963,1.369,55.474,25.138,55.902,56.518c0.079,5.745,0.196,14.84-5.404,23.053c0.936-3.959,1.445-8.079,1.445-12.319v-5.833   c1.664-0.64,2.816-2.272,2.728-4.151c-0.112-2.344-2.084-4.146-4.447-4.043c-44.807,2.152-72.33-33.372-72.6-33.727l-0.01,0.007   c-0.521-0.688-1.245-1.229-2.133-1.502c-2.238-0.69-4.618,0.572-5.31,2.813c-0.078,0.254-7.997,25.369-24.217,26.959   c-2.336,0.229-4.045,2.308-3.815,4.644c0.159,1.628,1.219,2.946,2.636,3.522v11.311c0,4.362,0.536,8.6,1.524,12.662   C264.075,81.356,263.286,73.087,263.454,64.907z" fill="#5c5c5c"/>
	<path d="M322.611,87.109h-5.393c-10.273,0-18.631,8.357-18.631,18.631v5.572c0,2.348,1.902,4.25,4.25,4.25   c2.348,0,4.25-1.902,4.25-4.25v-5.572c0-5.586,4.545-10.131,10.131-10.131h5.393c5.586,0,10.131,4.545,10.131,10.131v5.572   c0,2.348,1.902,4.25,4.25,4.25c2.348,0,4.25-1.902,4.25-4.25v-5.572C341.242,95.467,332.884,87.109,322.611,87.109z" fill="#5c5c5c"/>
	<path d="M324.923,103.575h-10.019c-2.348,0-4.25,1.902-4.25,4.25s1.902,4.25,4.25,4.25h10.019c2.348,0,4.25-1.902,4.25-4.25   S327.271,103.575,324.923,103.575z" fill="#5c5c5c"/>
	<path d="M77.011,200.123c-8.217,0-15.368,3.78-20.781,9.163c-0.03,0.029-0.066,0.048-0.097,0.078   c-8.932,8.909-35.768,35.596-35.768,35.596c-1.617,1.609-1.675,4.208-0.132,5.888l28.555,31.081c0.009,0.01,0.02,0.016,0.028,0.025   v76.3c0,2.348,1.902,4.25,4.25,4.25H185.13c2.348,0,4.25-1.902,4.25-4.25v-78.018l27.802-29.34c1.577-1.664,1.55-4.279-0.063-5.91   c0,0-26.03-25.563-34.179-34.582c-5.453-6.036-13.008-10.28-21.758-10.28h-38.191v-15.571c7.365-1.465,13.393-6.665,16.041-13.531   c4.359,4.63,10.537,7.529,17.383,7.529h94.457v110.366c0,2.348,1.902,4.25,4.25,4.25h2.523v168.071   c0,17.122,13.931,31.052,31.053,31.052c17.122,0,31.053-13.93,31.053-31.052V349.129h2.807v112.108   c0,17.122,13.931,31.052,31.053,31.052c17.122,0,31.053-13.93,31.053-31.052V293.166h2.523c2.348,0,4.25-1.902,4.25-4.25v-73.659   l40.982,40.777c4.655,4.656,10.772,6.984,16.887,6.984c6.116,0,12.232-2.328,16.888-6.984c9.311-9.312,9.311-24.463,0-33.775   c0,0-61.108-60.371-81.203-81.203c-5.644-5.851-13.004-10.27-21.75-10.27h-23.672c-2.172,0-3.994,1.637-4.226,3.796   c-0.661,6.15-6.893,10.968-14.189,10.968c-7.295,0-13.527-4.817-14.188-10.968c-0.233-2.159-2.055-3.796-4.226-3.796H156.415   c-10.641,0-19.676,6.997-22.754,16.63c-3.897-3.682-9.147-5.946-14.92-5.946c-11.993,0-21.75,9.757-21.75,21.75   c0,2.348,1.902,4.25,4.25,4.25c2.348,0,4.25-1.902,4.25-4.25c0-7.306,5.944-13.25,13.25-13.25c7.306,0,13.25,5.944,13.25,13.25   c0,7.306-5.944,13.25-13.25,13.25c-2.348,0-4.25,1.902-4.25,4.25v19.404H77.011z M131.55,208.623   c-2.455,3.73-7.169,6.264-12.453,6.264c-5.283,0-9.997-2.533-12.453-6.264H131.55z M29.255,248.104l19.561-19.466v40.757   L29.255,248.104z M189.38,267.878V229.01l18.803,19.025L189.38,267.878z M180.88,228.318v125.686H57.316v-21.191h52.587   c2.348,0,4.25-1.902,4.25-4.25s-1.902-4.25-4.25-4.25H57.316v-11.344h19.426c2.348,0,4.25-1.902,4.25-4.25   c0-2.348-1.902-4.25-4.25-4.25H57.316v-76.15c0-10.86,8.835-19.695,19.695-19.695h20.25c2.772,8.637,11.522,14.764,21.836,14.764   c10.314,0,19.064-6.127,21.836-14.764h20.25C172.044,208.623,180.88,217.458,180.88,228.318z M391.437,159.522l19.567,19.568   l-19.567,19.567V159.522z M321.154,154.049c10.315,0,19.065-6.127,21.836-14.764h20.25c10.861,0,19.697,8.835,19.697,19.695   v125.686H259.372v-21.191h52.587c2.348,0,4.25-1.902,4.25-4.25c0-2.348-1.902-4.25-4.25-4.25h-52.587V158.98   c0-10.86,8.835-19.695,19.695-19.695h20.25C302.09,147.922,310.84,154.049,321.154,154.049z M141.033,154.668   c0-8.482,6.9-15.383,15.383-15.383h61.188v30.765h-61.188C147.933,170.05,141.033,163.149,141.033,154.668z M226.103,170.05   v-30.765h32.815c-4.973,5.086-8.046,12.037-8.046,19.695v11.069H226.103z M376.163,313.143l-14.97-14.971   c-1.658-1.66-4.352-1.66-6.01,0c-1.66,1.659-1.66,4.351,0,6.01l20.98,20.98v110.813h-7.219c-2.348,0-4.25,1.902-4.25,4.25   c0,2.348,1.902,4.25,4.25,4.25h7.219v7.186H345.89c-2.348,0-4.25,1.902-4.25,4.25c0,2.348,1.902,4.25,4.25,4.25h30.273v1.076   c0,12.436-10.117,22.552-22.553,22.552c-12.436,0-22.553-10.116-22.553-22.552V344.879c0-2.348-1.902-4.25-4.25-4.25h-11.307   c-2.348,0-4.25,1.902-4.25,4.25v116.358c0,12.436-10.117,22.552-22.553,22.552c-12.436,0-22.553-10.116-22.553-22.552v-1.076   h30.385c2.348,0,4.25-1.902,4.25-4.25c0-2.348-1.902-4.25-4.25-4.25h-30.385V324.917l20.735-20.735c1.66-1.659,1.66-4.35,0-6.01   c-1.658-1.66-4.352-1.66-6.01,0l-14.726,14.726v-19.731h110.018V313.143z M460.183,250.024c-2.905,2.905-6.769,4.505-10.877,4.505   c-4.109,0-7.973-1.6-10.885-4.513l-43.27-43.054l21.862-21.862l43.168,43.168C466.18,234.268,466.18,244.026,460.183,250.024z" fill="#5c5c5c"/>
	<path d="M335.366,198.13l14.375,10c0.729,0.507,1.578,0.761,2.427,0.761c0.848,0,1.695-0.253,2.424-0.759l14.403-10   c1.144-0.794,1.826-2.099,1.826-3.491v-18.75c0-2.348-1.902-4.25-4.25-4.25h-28.778c-2.348,0-4.25,1.902-4.25,4.25v18.75   C333.542,196.032,334.223,197.335,335.366,198.13z M342.042,180.141h20.278v12.276l-10.151,7.048l-10.127-7.045V180.141z" fill="#5c5c5c"/>
	<path d="M345.626,169.808h20.944c2.348,0,4.25-1.902,4.25-4.25c0-2.348-1.902-4.25-4.25-4.25h-20.944   c-2.348,0-4.25,1.902-4.25,4.25C341.376,167.905,343.279,169.808,345.626,169.808z" fill="#5c5c5c"/>
	<path d="M164.514,240.978h-28.778c-2.348,0-4.25,1.902-4.25,4.25v18.75c0,1.392,0.681,2.694,1.823,3.489l14.375,10   c0.729,0.507,1.578,0.761,2.427,0.761c0.848,0,1.695-0.253,2.424-0.759l14.403-10c1.144-0.794,1.826-2.099,1.826-3.491v-18.75   C168.764,242.881,166.862,240.978,164.514,240.978z M160.264,261.755l-10.151,7.048l-10.127-7.045v-12.279h20.278V261.755z" fill="#5c5c5c"/>
	<path d="M139.32,234.895c0,2.348,1.902,4.25,4.25,4.25h20.944c2.348,0,4.25-1.902,4.25-4.25c0-2.348-1.902-4.25-4.25-4.25H143.57   C141.222,230.645,139.32,232.548,139.32,234.895z" fill="#5c5c5c"/>
	<path d="M281.417,353.138c-2.348,0-4.25,1.902-4.25,4.25v64c0,2.348,1.902,4.25,4.25,4.25c2.348,0,4.25-1.902,4.25-4.25v-64   C285.667,355.04,283.765,353.138,281.417,353.138z" fill="#5c5c5c"/>
</g>
<g>
</g>
<g>
</g>
<g>
</g>
<g>
</g>
<g>
</g>
<g>
</g>
<g>
</g>
<g>
</g>
<g>
</g>
<g>
</g>
<g>
</g>
<g>
</g>
<g>
</g>
<g>
</g>
<g>
</g>
</svg>
